<?xml version="1.0" encoding="UTF-8"?>
<svg id="_レイヤー_1" data-name="レイヤー_1" xmlns="http://www.w3.org/2000/svg" version="1.1" viewBox="0 0 151 168">
  <!-- Generator: Adobe Illustrator 30.4.0, SVG Export Plug-In . SVG Version: 2.1.4 Build 226)  -->
  <defs>
    <style>
      .st0 {
        fill: #595858;
      }
    </style>
  </defs>
  <path class="st0" d="M88.13,168c-4.02,0-6.33-1.83-6.33-5.03v-11.83c-.08-.77-.76-1.33-1.53-1.26,0,0,0,0,0,0h-6.84v12.7h-2.53v-12.7h-1.56v-1.07h10.85c2.28,0,4.14,1.57,4.14,3.5v11.83c0,2.71,3.31,2.79,3.69,2.79h15.42c.71-.02,1.4-.23,2-.62l.29-.26v1.3l-.08.05c-.72.4-1.52.61-2.34.6h-15.19ZM150.82,162.9c-2.27-.05-4.05-1.59-4.05-3.49v-8.27c-.08-.77-.76-1.33-1.53-1.26,0,0,0,0,0,0h-6.84v12.7h-2.53v-12.7h-1.56v-1.07h10.85c2.28,0,4.14,1.57,4.14,3.5v8.3c.08.77.76,1.32,1.53,1.26h.17v1.03h-.18ZM35.06,162.9c-2.27-.05-4.05-1.59-4.05-3.49v-8.27c-.08-.77-.76-1.33-1.53-1.26,0,0,0,0,0,0h-6.84v12.7h-2.53v-12.7h-1.55v-1.07h10.85c2.28,0,4.14,1.57,4.14,3.5v8.3c.08.77.76,1.32,1.53,1.26h.17v1.03h-.18ZM95.08,162.79c-2.28,0-4.14-1.57-4.14-3.5v-6.99c0-1.93,1.86-3.5,4.14-3.5h5.12c2.3,0,4.17,1.57,4.17,3.5v7c0,1.93-1.87,3.5-4.17,3.5h-5.12ZM93.45,151.11v9.39c.08.77.76,1.33,1.53,1.26,0,0,0,0,0,0h5.36c.77.07,1.45-.49,1.53-1.26v-9.39c-.08-.77-.76-1.33-1.53-1.26h-5.36c-.77-.08-1.46.48-1.53,1.25,0,0,0,0,0,0ZM64.65,162.59l-.05-.04c-4.3-3.71-6.82-5.88-7.3-6.26-.15-.12-.35-.29-1.15-.29h-1.31v6.58h-2.44v-22.45h2.44v14.31h1.31c.52.06,1.04-.08,1.46-.39.44-.36,2.3-2.16,5.37-5.2l.05-.05h1.57l-.28.28c-3.1,3.08-5.03,4.96-5.76,5.61l.1.07c.7.56,5.15,4.41,8.77,7.53l.33.29h-3.11ZM111.26,162.59v-12.7h-1.37v-1.07h3.88v12.74h5.1v-12.75h2.5v12.74h3.57c.77.08,1.46-.48,1.53-1.25,0,0,0,0,0,0v-11.48h2.5v10.28c0,1.93-1.86,3.5-4.14,3.5h-13.57ZM4.14,162.59C1.86,162.59,0,161.02,0,159.09v-10.28h2.53v11.45c.08.77.76,1.33,1.53,1.26,0,0,0,0,0,0h6.84v-12.7h2.53v13.78H4.14ZM38.92,155.42v-1.41h8.13v1.41h-8.13ZM77.82,129.92v-21.83c-20.17-13.5-44.35-29.73-47.58-32.13-1.59-1.18-3.51-1.96-7.71-1.96h-5.86v29.08h-7.78V5.53h7.78v65.24h5.86c4.21,0,6.12-.79,7.72-1.97,3.22-2.39,20.26-17.96,33.74-30.39V0h7.78v35.31h4.18c2.12,0,2.86-.42,3.43-.84,1.37-1.02,8.06-7.09,14.83-13.31h4.75c-6.93,6.39-15.79,14.49-17.54,15.78-.3.22-.62.42-.95.6,3.49,2.42,14.4,9.74,23.56,15.87h-5.74c-9.42-6.31-19.34-12.98-20.82-14.08-.57-.42-1.31-.84-3.43-.84h-2.26v15.08h-7.78v-10.78c-13.11,12.06-28.54,26.14-31.71,28.49-.57.42-1.17.79-1.8,1.11.63.32,1.23.69,1.8,1.11,3.05,2.26,25.81,17.55,45.54,30.76v-42.14h7.78v44.14h3.53c2.69,0,3.86-.46,4.87-1.22,1.81-1.34,10.17-8.94,18.19-16.29v-28.21h6.81v26.22h2.6c.69.09,1.38-.07,1.96-.45.76-.57,4.16-3.78,8.01-7.48h4.5c-4.25,4.11-9.33,8.97-10.51,9.86,2.69,1.85,9.3,6.28,15.55,10.46h-5.56c-6.02-4.03-12.15-8.16-13.1-8.86-.58-.38-1.27-.54-1.96-.45h-1.48v9.49h-6.8v-6.22c-7.32,6.7-14.42,13.12-16.15,14.4-.43.32-.9.61-1.38.85,2.82,2.03,18.53,12.57,31.71,21.4h-5.74c-12.66-8.48-26.24-17.61-28.23-19.08-1.01-.75-2.18-1.22-4.87-1.22h-1.94v20.47h-7.78Z"/>
</svg>